<?xml version="1.0" encoding="utf-8"?>
<svg version="1.1" id="Layer_1" xmlns="http://www.w3.org/2000/svg" xmlns:xlink="http://www.w3.org/1999/xlink" x="0px" y="0px"
	 viewBox="0 0 200 200" style="enable-background:new 0 0 200 200;" xml:space="preserve">
<style type="text/css">
	.st0{fill-rule:evenodd;clip-rule:evenodd;fill:#853B23;}
	.st1{fill-rule:evenodd;clip-rule:evenodd;fill:#F2F2F2;}
</style>
<rect class="st0" width="200" height="200"/>
<path class="st1" d="M86.71,3.71C77.25,6.83,67.62,16.64,64.6,28.42c-3.24,11.97-1.74,24.7,5.39,34.91
	c7.46,10.22,20.36,13,29.82,8.01c4.82-2.28,9.6-7.53,11.32-13.32c1.95-5.82,1.61-12.27-0.48-17.38
	c-1.91-5.54-7.09-10.14-12.05-10.76c-5.17-0.72-9.68,0.7-13.37,5.44c-3.32,4.61-3.4,10.81-1.36,14.95c0.08,0.17,0.19,0.31,0.27,0.48
	c-0.16-0.18-0.34-0.34-0.48-0.54c-2.37-3.26-3.81-10.18-2.23-15.58c1.63-5.79,4.96-10.15,10.97-12.73
	c11.46-5.59,26.19-0.38,33.17,11.38c7.35,12.23,9.18,27.87,6.71,40.2c-2.32,12.56-8.07,21.89-12.71,27.63
	c-4.73,5.72-8.19,8.42-7.79,9.25c0.24,0.56,4.46-0.48,10.75-5.25c6.14-4.79,14.31-14.03,18.82-28.59
	c4.58-14.35,4.68-33.96-4.09-51.71C128.35,6.35,105.98-4.33,86.71,3.71"/>
<path class="st1" d="M104.97,198.76c9.77,1.38,21.99-3.32,28.82-12.81c7.09-9.55,10.09-21.94,7.03-34.53
	c-3.35-12.75-14.26-21.09-24.67-20.75c-5.21-0.06-11.41,2.61-14.99,7.17c-3.8,4.47-5.7,10.56-5.53,16.2
	c-0.14,5.95,3.04,12.51,7.39,15.3c4.51,2.98,9.14,3.71,14.17,1c4.64-2.74,6.83-8.42,6.38-13.14c-0.02-0.19-0.07-0.37-0.08-0.56
	c0.09,0.24,0.19,0.47,0.26,0.72c1.06,4.06,0.01,11.07-3.3,15.33c-3.49,4.6-8.05,7.1-14.46,6.79c-12.46,0-24.21-11.41-26.6-25.36
	c-2.56-14.54,1.13-29.76,7.63-39.99c6.44-10.51,14.94-16.51,21.17-19.7c6.31-3.14,10.42-4.07,10.34-5.01
	c-0.02-0.63-4.26-1.56-11.69,0c-7.3,1.65-17.98,6.48-27.12,17.84c-9.14,11.14-15.96,29.13-13.99,49.39
	C67.58,177.64,84.48,197.51,104.97,198.76"/>
<path class="st1" d="M107.32,79.39c0.41,0.17-2.52,0.96-8.84,2.38c-3.77,0.85-7.3,1.39-14.2,2.05c-5.23,0.5-11.51,1.19-16.5,0.12
	c-10.16-2.16-13.66-8.42-12.6-13.14c0.5-2.41,2.12-4.51,3.82-5.76c1.69-1.27,3.25-1.71,4.01-1.45c1.54,0.58-0.47,2.94-0.14,6.32
	c0.18,3.31,2.96,7.85,9.33,9.55C78.44,81.33,101.08,79.68,107.32,79.39z"/>
<path class="st1" d="M61.3,63.66c4.23-0.84,8.32,1.97,9.15,6.27c0.82,4.3-1.93,8.47-6.16,9.31c-4.22,0.84-8.31-1.97-9.14-6.27
	C54.32,68.67,57.08,64.5,61.3,63.66"/>
<path class="st1" d="M73.14,93.35c-5.54,3.63-6.8,8.83-5.96,12.03c0.72,3.32,3.34,4.92,2.06,5.96c-0.64,0.49-2.26,0.57-4.25-0.11
	c-2-0.66-4.18-2.13-5.39-4.27c-2.45-4.16-1.03-11.21,7.96-16.48c4.41-2.59,10.58-3.93,15.71-5.11c6.77-1.56,10.29-2.16,14.13-2.55
	c6.44-0.65,9.46-0.82,9.13-0.53C100.51,83.99,78.48,89.59,73.14,93.35z"/>
<path class="st1" d="M67.59,111.81c-4.27,0.54-8.16-2.55-8.69-6.9c-0.53-4.35,2.51-8.31,6.77-8.85c4.27-0.54,8.17,2.55,8.7,6.9
	C74.9,107.31,71.87,111.27,67.59,111.81"/>
<path class="st1" d="M100.72,124.83c-0.35,0.01,1.52-1.47,5.65-4.46c2.46-1.78,4.84-3.27,9.63-5.89c3.63-1.99,8.12-3.84,11.89-5.23
	c7.17-2.65,8.27-2.56,12.22-2.74c3.04-0.14,3.73,0.13,4.36,2.5c0.65,2.42-3.05,3.61-6.69,4.75c-2.45,0.76-7.33,2.27-12.46,3.05
	C120.22,117.4,105.14,122.68,100.72,124.83z"/>
<path class="st1" d="M103.73,125.07c-0.3-0.13,1.69-0.85,6.02-2.16c2.58-0.78,5.02-1.3,9.84-1.98c3.65-0.52,8.01-0.54,11.62-0.41
	c6.88,0.26,7.82,0.79,11.28,2.2c2.67,1.09,3.2,1.64,3.15,4.24c-0.05,2.66-3.56,2.36-7,2.02c-2.31-0.23-6.93-0.69-11.57-1.99
	C122.51,125.54,108.1,124.7,103.73,125.07z"/>
</svg>


